<?xml version="1.0" encoding="utf-8"?>
<!-- Generator: Adobe Illustrator 23.0.0, SVG Export Plug-In . SVG Version: 6.00 Build 0)  -->
<svg version="1.1" id="Camada_1_1_" xmlns="http://www.w3.org/2000/svg" xmlns:xlink="http://www.w3.org/1999/xlink" x="0px"
	 y="0px" viewBox="0 0 276 277" style="enable-background:new 0 0 276 277;" xml:space="preserve">
<style type="text/css">
	.st0{fill:#FFFFFF;}
	.st1{font-family:'CoolveticaRg-Regular';}
	.st2{font-size:150px;}
	.st3{fill:none;stroke:#FFFFFF;stroke-width:5;stroke-miterlimit:10;}
</style>
<text transform="matrix(1 0 0 1 31.769 186.4067)" class="st0 st1 st2">CO</text>
<g>
	<path class="st0" d="M256.97,171.07c-0.46-6.99-6.04-12.58-13.03-13.03V158H243h-0.93v0.03c-6.99,0.46-12.58,6.05-13.03,13.03H229
		V172v0.93h0.03c0.46,6.99,6.05,12.57,13.03,13.03V186H243h0.93v-0.03c6.99-0.46,12.57-6.04,13.03-13.03H257V172v-0.93H256.97z
		 M237.76,161.05c-0.9,1.2-1.65,2.7-2.2,4.41h-2.8C233.99,163.57,235.72,162.03,237.76,161.05z M231.8,167.33h3.28
		c-0.25,1.18-0.41,2.43-0.46,3.73h-3.72C231,169.75,231.31,168.5,231.8,167.33z M230.9,172.93h3.72c0.05,1.3,0.21,2.55,0.46,3.73
		h-3.28C231.31,175.5,231,174.25,230.9,172.93z M232.77,178.53h2.79c0.55,1.71,1.29,3.22,2.2,4.41
		C235.72,181.97,233.99,180.43,232.77,178.53z M242.07,184.01c-1.92-0.51-3.57-2.57-4.57-5.48h4.57V184.01z M242.07,176.67h-5.1
		c-0.26-1.16-0.43-2.42-0.48-3.73h5.58V176.67z M242.07,171.07h-5.58c0.05-1.31,0.22-2.57,0.48-3.73h5.1V171.07z M242.07,165.47
		h-4.57c1-2.91,2.65-4.97,4.57-5.48V165.47z M253.23,165.47h-2.79c-0.55-1.71-1.29-3.22-2.2-4.41
		C250.28,162.03,252.01,163.57,253.23,165.47z M243.93,159.99c1.92,0.51,3.57,2.57,4.57,5.48h-4.57V159.99z M243.93,167.33h5.1
		c0.27,1.16,0.43,2.42,0.49,3.73h-5.58V167.33z M243.93,172.93h5.58c-0.05,1.31-0.22,2.57-0.49,3.73h-5.1V172.93z M243.93,184.01
		v-5.48h4.57C247.5,181.44,245.85,183.5,243.93,184.01z M248.24,182.95c0.9-1.2,1.65-2.7,2.2-4.41h2.79
		C252.01,180.43,250.28,181.97,248.24,182.95z M254.2,176.67h-3.28c0.25-1.18,0.41-2.43,0.46-3.73h3.71
		C255,174.25,254.69,175.5,254.2,176.67z M251.38,171.07c-0.05-1.3-0.21-2.55-0.46-3.73h3.28c0.49,1.16,0.8,2.42,0.89,3.73H251.38z"
		/>
</g>
<rect x="0.5" y="0.5" class="st3" width="276" height="276"/>
</svg>
